<mxfile host="app.diagrams.net" modified="2023-05-25T11:37:50.465Z" agent="Mozilla/5.0 (Windows NT 10.0; Win64; x64) AppleWebKit/537.36 (KHTML, like Gecko) Chrome/115.0.0.0 Safari/537.36 Edg/115.0.0.0" etag="l59VPPBDEdLwO9F1BSwz" version="21.3.2" type="github">
  <diagram name="第 1 页" id="L3YYOfRVzUbYMGYdMul0">
    <mxGraphModel dx="1134" dy="727" grid="1" gridSize="10" guides="1" tooltips="1" connect="1" arrows="1" fold="1" page="1" pageScale="1" pageWidth="827" pageHeight="1169" math="0" shadow="0">
      <root>
        <mxCell id="0" />
        <mxCell id="1" parent="0" />
        <mxCell id="Uv0XRD-SDKMZK3PV6rSL-1" value="0" style="rounded=1;whiteSpace=wrap;html=1;" vertex="1" parent="1">
          <mxGeometry x="40" y="120" width="80" height="80" as="geometry" />
        </mxCell>
        <mxCell id="Uv0XRD-SDKMZK3PV6rSL-2" value="1" style="rounded=1;whiteSpace=wrap;html=1;" vertex="1" parent="1">
          <mxGeometry x="120" y="120" width="80" height="80" as="geometry" />
        </mxCell>
        <mxCell id="Uv0XRD-SDKMZK3PV6rSL-3" value="2" style="rounded=1;whiteSpace=wrap;html=1;" vertex="1" parent="1">
          <mxGeometry x="200" y="120" width="80" height="80" as="geometry" />
        </mxCell>
        <mxCell id="Uv0XRD-SDKMZK3PV6rSL-4" value="3" style="rounded=1;whiteSpace=wrap;html=1;" vertex="1" parent="1">
          <mxGeometry x="280" y="120" width="80" height="80" as="geometry" />
        </mxCell>
        <mxCell id="Uv0XRD-SDKMZK3PV6rSL-5" value="4" style="rounded=1;whiteSpace=wrap;html=1;" vertex="1" parent="1">
          <mxGeometry x="360" y="120" width="80" height="80" as="geometry" />
        </mxCell>
        <mxCell id="Uv0XRD-SDKMZK3PV6rSL-6" value="5" style="rounded=1;whiteSpace=wrap;html=1;" vertex="1" parent="1">
          <mxGeometry x="440" y="120" width="80" height="80" as="geometry" />
        </mxCell>
        <mxCell id="Uv0XRD-SDKMZK3PV6rSL-7" value="6" style="rounded=1;whiteSpace=wrap;html=1;" vertex="1" parent="1">
          <mxGeometry x="520" y="120" width="80" height="80" as="geometry" />
        </mxCell>
        <mxCell id="Uv0XRD-SDKMZK3PV6rSL-8" value="7" style="rounded=1;whiteSpace=wrap;html=1;" vertex="1" parent="1">
          <mxGeometry x="600" y="120" width="80" height="80" as="geometry" />
        </mxCell>
        <mxCell id="Uv0XRD-SDKMZK3PV6rSL-9" value="8" style="rounded=1;whiteSpace=wrap;html=1;" vertex="1" parent="1">
          <mxGeometry x="680" y="120" width="80" height="80" as="geometry" />
        </mxCell>
        <mxCell id="Uv0XRD-SDKMZK3PV6rSL-11" value="9" style="rounded=1;whiteSpace=wrap;html=1;" vertex="1" parent="1">
          <mxGeometry x="760" y="120" width="80" height="80" as="geometry" />
        </mxCell>
        <mxCell id="Uv0XRD-SDKMZK3PV6rSL-12" value="10" style="rounded=1;whiteSpace=wrap;html=1;" vertex="1" parent="1">
          <mxGeometry x="840" y="120" width="80" height="80" as="geometry" />
        </mxCell>
        <mxCell id="Uv0XRD-SDKMZK3PV6rSL-13" value="" style="shape=crossbar;whiteSpace=wrap;html=1;rounded=1;" vertex="1" parent="1">
          <mxGeometry x="40" y="309" width="70" height="20" as="geometry" />
        </mxCell>
        <mxCell id="Uv0XRD-SDKMZK3PV6rSL-14" value="1.0" style="rounded=1;whiteSpace=wrap;html=1;fillColor=#4D4D4D;" vertex="1" parent="1">
          <mxGeometry x="40" y="200" width="80" height="80" as="geometry" />
        </mxCell>
        <mxCell id="Uv0XRD-SDKMZK3PV6rSL-15" value="" style="rounded=1;whiteSpace=wrap;html=1;fillColor=#4D4D4D;" vertex="1" parent="1">
          <mxGeometry x="120" y="200" width="80" height="80" as="geometry" />
        </mxCell>
        <mxCell id="Uv0XRD-SDKMZK3PV6rSL-16" value="" style="rounded=1;whiteSpace=wrap;html=1;fillColor=#4D4D4D;" vertex="1" parent="1">
          <mxGeometry x="200" y="200" width="80" height="80" as="geometry" />
        </mxCell>
        <mxCell id="Uv0XRD-SDKMZK3PV6rSL-17" value="" style="rounded=1;whiteSpace=wrap;html=1;fillColor=#4D4D4D;" vertex="1" parent="1">
          <mxGeometry x="280" y="200" width="80" height="80" as="geometry" />
        </mxCell>
        <mxCell id="Uv0XRD-SDKMZK3PV6rSL-18" value="" style="rounded=1;whiteSpace=wrap;html=1;fillColor=#4D4D4D;" vertex="1" parent="1">
          <mxGeometry x="360" y="200" width="80" height="80" as="geometry" />
        </mxCell>
        <mxCell id="Uv0XRD-SDKMZK3PV6rSL-19" value="" style="rounded=1;whiteSpace=wrap;html=1;fillColor=#4D4D4D;" vertex="1" parent="1">
          <mxGeometry x="440" y="200" width="80" height="80" as="geometry" />
        </mxCell>
        <mxCell id="Uv0XRD-SDKMZK3PV6rSL-20" value="" style="rounded=1;whiteSpace=wrap;html=1;fillColor=#4D4D4D;" vertex="1" parent="1">
          <mxGeometry x="520" y="200" width="80" height="80" as="geometry" />
        </mxCell>
        <mxCell id="Uv0XRD-SDKMZK3PV6rSL-21" value="" style="rounded=1;whiteSpace=wrap;html=1;fillColor=#4D4D4D;" vertex="1" parent="1">
          <mxGeometry x="600" y="200" width="80" height="80" as="geometry" />
        </mxCell>
        <mxCell id="Uv0XRD-SDKMZK3PV6rSL-22" value="" style="rounded=1;whiteSpace=wrap;html=1;fillColor=#4D4D4D;" vertex="1" parent="1">
          <mxGeometry x="680" y="200" width="80" height="80" as="geometry" />
        </mxCell>
        <mxCell id="Uv0XRD-SDKMZK3PV6rSL-23" value="" style="rounded=1;whiteSpace=wrap;html=1;fillColor=#4D4D4D;" vertex="1" parent="1">
          <mxGeometry x="760" y="200" width="80" height="80" as="geometry" />
        </mxCell>
        <mxCell id="Uv0XRD-SDKMZK3PV6rSL-24" value="" style="rounded=1;whiteSpace=wrap;html=1;fillColor=#4D4D4D;" vertex="1" parent="1">
          <mxGeometry x="840" y="200" width="80" height="80" as="geometry" />
        </mxCell>
        <mxCell id="Uv0XRD-SDKMZK3PV6rSL-51" value="" style="group" vertex="1" connectable="0" parent="1">
          <mxGeometry x="40" y="560" width="880" height="129" as="geometry" />
        </mxCell>
        <mxCell id="Uv0XRD-SDKMZK3PV6rSL-27" value="" style="shape=crossbar;whiteSpace=wrap;html=1;rounded=1;" vertex="1" parent="Uv0XRD-SDKMZK3PV6rSL-51">
          <mxGeometry y="109" width="160" height="20" as="geometry" />
        </mxCell>
        <mxCell id="Uv0XRD-SDKMZK3PV6rSL-28" value="1.0" style="rounded=1;whiteSpace=wrap;html=1;fillColor=#4D4D4D;" vertex="1" parent="Uv0XRD-SDKMZK3PV6rSL-51">
          <mxGeometry width="80" height="80" as="geometry" />
        </mxCell>
        <mxCell id="Uv0XRD-SDKMZK3PV6rSL-29" value="0.2" style="rounded=1;whiteSpace=wrap;html=1;fillColor=#4D4D4D;" vertex="1" parent="Uv0XRD-SDKMZK3PV6rSL-51">
          <mxGeometry x="80" width="80" height="80" as="geometry" />
        </mxCell>
        <mxCell id="Uv0XRD-SDKMZK3PV6rSL-30" value="0.288" style="rounded=1;whiteSpace=wrap;html=1;fillColor=#4D4D4D;" vertex="1" parent="Uv0XRD-SDKMZK3PV6rSL-51">
          <mxGeometry x="160" width="80" height="80" as="geometry" />
        </mxCell>
        <mxCell id="Uv0XRD-SDKMZK3PV6rSL-31" value="" style="rounded=1;whiteSpace=wrap;html=1;fillColor=#4D4D4D;" vertex="1" parent="Uv0XRD-SDKMZK3PV6rSL-51">
          <mxGeometry x="240" width="80" height="80" as="geometry" />
        </mxCell>
        <mxCell id="Uv0XRD-SDKMZK3PV6rSL-32" value="" style="rounded=1;whiteSpace=wrap;html=1;fillColor=#4D4D4D;" vertex="1" parent="Uv0XRD-SDKMZK3PV6rSL-51">
          <mxGeometry x="320" width="80" height="80" as="geometry" />
        </mxCell>
        <mxCell id="Uv0XRD-SDKMZK3PV6rSL-33" value="" style="rounded=1;whiteSpace=wrap;html=1;fillColor=#4D4D4D;" vertex="1" parent="Uv0XRD-SDKMZK3PV6rSL-51">
          <mxGeometry x="400" width="80" height="80" as="geometry" />
        </mxCell>
        <mxCell id="Uv0XRD-SDKMZK3PV6rSL-34" value="" style="rounded=1;whiteSpace=wrap;html=1;fillColor=#4D4D4D;" vertex="1" parent="Uv0XRD-SDKMZK3PV6rSL-51">
          <mxGeometry x="480" width="80" height="80" as="geometry" />
        </mxCell>
        <mxCell id="Uv0XRD-SDKMZK3PV6rSL-35" value="" style="rounded=1;whiteSpace=wrap;html=1;fillColor=#4D4D4D;" vertex="1" parent="Uv0XRD-SDKMZK3PV6rSL-51">
          <mxGeometry x="560" width="80" height="80" as="geometry" />
        </mxCell>
        <mxCell id="Uv0XRD-SDKMZK3PV6rSL-36" value="" style="rounded=1;whiteSpace=wrap;html=1;fillColor=#4D4D4D;" vertex="1" parent="Uv0XRD-SDKMZK3PV6rSL-51">
          <mxGeometry x="640" width="80" height="80" as="geometry" />
        </mxCell>
        <mxCell id="Uv0XRD-SDKMZK3PV6rSL-37" value="" style="rounded=1;whiteSpace=wrap;html=1;fillColor=#4D4D4D;" vertex="1" parent="Uv0XRD-SDKMZK3PV6rSL-51">
          <mxGeometry x="720" width="80" height="80" as="geometry" />
        </mxCell>
        <mxCell id="Uv0XRD-SDKMZK3PV6rSL-38" value="" style="rounded=1;whiteSpace=wrap;html=1;fillColor=#4D4D4D;" vertex="1" parent="Uv0XRD-SDKMZK3PV6rSL-51">
          <mxGeometry x="800" width="80" height="80" as="geometry" />
        </mxCell>
        <mxCell id="Uv0XRD-SDKMZK3PV6rSL-52" value="" style="group" vertex="1" connectable="0" parent="1">
          <mxGeometry x="42" y="370" width="880" height="129" as="geometry" />
        </mxCell>
        <mxCell id="Uv0XRD-SDKMZK3PV6rSL-53" value="" style="shape=crossbar;whiteSpace=wrap;html=1;rounded=1;" vertex="1" parent="Uv0XRD-SDKMZK3PV6rSL-52">
          <mxGeometry y="109" width="70" height="20" as="geometry" />
        </mxCell>
        <mxCell id="Uv0XRD-SDKMZK3PV6rSL-54" value="1.0" style="rounded=1;whiteSpace=wrap;html=1;fillColor=#4D4D4D;" vertex="1" parent="1">
          <mxGeometry x="41" y="373" width="80" height="80" as="geometry" />
        </mxCell>
        <mxCell id="Uv0XRD-SDKMZK3PV6rSL-55" value="0.2" style="rounded=1;whiteSpace=wrap;html=1;fillColor=#4D4D4D;" vertex="1" parent="1">
          <mxGeometry x="121" y="373" width="80" height="80" as="geometry" />
        </mxCell>
        <mxCell id="Uv0XRD-SDKMZK3PV6rSL-56" value="" style="rounded=1;whiteSpace=wrap;html=1;fillColor=#4D4D4D;" vertex="1" parent="1">
          <mxGeometry x="201" y="373" width="80" height="80" as="geometry" />
        </mxCell>
        <mxCell id="Uv0XRD-SDKMZK3PV6rSL-57" value="" style="rounded=1;whiteSpace=wrap;html=1;fillColor=#4D4D4D;" vertex="1" parent="1">
          <mxGeometry x="281" y="373" width="80" height="80" as="geometry" />
        </mxCell>
        <mxCell id="Uv0XRD-SDKMZK3PV6rSL-58" value="" style="rounded=1;whiteSpace=wrap;html=1;fillColor=#4D4D4D;" vertex="1" parent="1">
          <mxGeometry x="361" y="373" width="80" height="80" as="geometry" />
        </mxCell>
        <mxCell id="Uv0XRD-SDKMZK3PV6rSL-59" value="" style="rounded=1;whiteSpace=wrap;html=1;fillColor=#4D4D4D;" vertex="1" parent="1">
          <mxGeometry x="441" y="373" width="80" height="80" as="geometry" />
        </mxCell>
        <mxCell id="Uv0XRD-SDKMZK3PV6rSL-60" value="" style="rounded=1;whiteSpace=wrap;html=1;fillColor=#4D4D4D;" vertex="1" parent="1">
          <mxGeometry x="521" y="373" width="80" height="80" as="geometry" />
        </mxCell>
        <mxCell id="Uv0XRD-SDKMZK3PV6rSL-61" value="" style="rounded=1;whiteSpace=wrap;html=1;fillColor=#4D4D4D;" vertex="1" parent="1">
          <mxGeometry x="601" y="373" width="80" height="80" as="geometry" />
        </mxCell>
        <mxCell id="Uv0XRD-SDKMZK3PV6rSL-62" value="" style="rounded=1;whiteSpace=wrap;html=1;fillColor=#4D4D4D;" vertex="1" parent="1">
          <mxGeometry x="681" y="373" width="80" height="80" as="geometry" />
        </mxCell>
        <mxCell id="Uv0XRD-SDKMZK3PV6rSL-63" value="" style="rounded=1;whiteSpace=wrap;html=1;fillColor=#4D4D4D;" vertex="1" parent="1">
          <mxGeometry x="761" y="373" width="80" height="80" as="geometry" />
        </mxCell>
        <mxCell id="Uv0XRD-SDKMZK3PV6rSL-64" value="" style="rounded=1;whiteSpace=wrap;html=1;fillColor=#4D4D4D;" vertex="1" parent="1">
          <mxGeometry x="841" y="373" width="80" height="80" as="geometry" />
        </mxCell>
        <mxCell id="Uv0XRD-SDKMZK3PV6rSL-65" value="" style="group" vertex="1" connectable="0" parent="1">
          <mxGeometry x="41" y="960" width="880" height="129" as="geometry" />
        </mxCell>
        <mxCell id="Uv0XRD-SDKMZK3PV6rSL-66" value="" style="shape=crossbar;whiteSpace=wrap;html=1;rounded=1;" vertex="1" parent="Uv0XRD-SDKMZK3PV6rSL-65">
          <mxGeometry y="109" width="310" height="20" as="geometry" />
        </mxCell>
        <mxCell id="Uv0XRD-SDKMZK3PV6rSL-67" value="1.0" style="rounded=1;whiteSpace=wrap;html=1;fillColor=#4D4D4D;" vertex="1" parent="Uv0XRD-SDKMZK3PV6rSL-65">
          <mxGeometry width="80" height="80" as="geometry" />
        </mxCell>
        <mxCell id="Uv0XRD-SDKMZK3PV6rSL-68" value="0.2" style="rounded=1;whiteSpace=wrap;html=1;fillColor=#4D4D4D;" vertex="1" parent="Uv0XRD-SDKMZK3PV6rSL-65">
          <mxGeometry x="80" width="80" height="80" as="geometry" />
        </mxCell>
        <mxCell id="Uv0XRD-SDKMZK3PV6rSL-69" value="0.288" style="rounded=1;whiteSpace=wrap;html=1;fillColor=#4D4D4D;" vertex="1" parent="Uv0XRD-SDKMZK3PV6rSL-65">
          <mxGeometry x="160" width="80" height="80" as="geometry" />
        </mxCell>
        <mxCell id="Uv0XRD-SDKMZK3PV6rSL-70" value="0.3456" style="rounded=1;whiteSpace=wrap;html=1;fillColor=#4D4D4D;" vertex="1" parent="Uv0XRD-SDKMZK3PV6rSL-65">
          <mxGeometry x="240" width="80" height="80" as="geometry" />
        </mxCell>
        <mxCell id="Uv0XRD-SDKMZK3PV6rSL-71" value="0.41472" style="rounded=1;whiteSpace=wrap;html=1;fillColor=#4D4D4D;" vertex="1" parent="Uv0XRD-SDKMZK3PV6rSL-65">
          <mxGeometry x="320" width="80" height="80" as="geometry" />
        </mxCell>
        <mxCell id="Uv0XRD-SDKMZK3PV6rSL-72" value="" style="rounded=1;whiteSpace=wrap;html=1;fillColor=#4D4D4D;" vertex="1" parent="Uv0XRD-SDKMZK3PV6rSL-65">
          <mxGeometry x="400" width="80" height="80" as="geometry" />
        </mxCell>
        <mxCell id="Uv0XRD-SDKMZK3PV6rSL-73" value="" style="rounded=1;whiteSpace=wrap;html=1;fillColor=#4D4D4D;" vertex="1" parent="Uv0XRD-SDKMZK3PV6rSL-65">
          <mxGeometry x="480" width="80" height="80" as="geometry" />
        </mxCell>
        <mxCell id="Uv0XRD-SDKMZK3PV6rSL-74" value="" style="rounded=1;whiteSpace=wrap;html=1;fillColor=#4D4D4D;" vertex="1" parent="Uv0XRD-SDKMZK3PV6rSL-65">
          <mxGeometry x="560" width="80" height="80" as="geometry" />
        </mxCell>
        <mxCell id="Uv0XRD-SDKMZK3PV6rSL-75" value="" style="rounded=1;whiteSpace=wrap;html=1;fillColor=#4D4D4D;" vertex="1" parent="Uv0XRD-SDKMZK3PV6rSL-65">
          <mxGeometry x="640" width="80" height="80" as="geometry" />
        </mxCell>
        <mxCell id="Uv0XRD-SDKMZK3PV6rSL-76" value="" style="rounded=1;whiteSpace=wrap;html=1;fillColor=#4D4D4D;" vertex="1" parent="Uv0XRD-SDKMZK3PV6rSL-65">
          <mxGeometry x="720" width="80" height="80" as="geometry" />
        </mxCell>
        <mxCell id="Uv0XRD-SDKMZK3PV6rSL-77" value="" style="rounded=1;whiteSpace=wrap;html=1;fillColor=#4D4D4D;" vertex="1" parent="Uv0XRD-SDKMZK3PV6rSL-65">
          <mxGeometry x="800" width="80" height="80" as="geometry" />
        </mxCell>
        <mxCell id="Uv0XRD-SDKMZK3PV6rSL-78" value="" style="group" vertex="1" connectable="0" parent="1">
          <mxGeometry x="52" y="770" width="880" height="129" as="geometry" />
        </mxCell>
        <mxCell id="Uv0XRD-SDKMZK3PV6rSL-79" value="" style="shape=crossbar;whiteSpace=wrap;html=1;rounded=1;" vertex="1" parent="Uv0XRD-SDKMZK3PV6rSL-78">
          <mxGeometry x="-12" y="109" width="240" height="20" as="geometry" />
        </mxCell>
        <mxCell id="Uv0XRD-SDKMZK3PV6rSL-80" value="1.0" style="rounded=1;whiteSpace=wrap;html=1;fillColor=#4D4D4D;" vertex="1" parent="Uv0XRD-SDKMZK3PV6rSL-78">
          <mxGeometry x="-10" width="80" height="80" as="geometry" />
        </mxCell>
        <mxCell id="Uv0XRD-SDKMZK3PV6rSL-81" value="0.2" style="rounded=1;whiteSpace=wrap;html=1;fillColor=#4D4D4D;" vertex="1" parent="Uv0XRD-SDKMZK3PV6rSL-78">
          <mxGeometry x="70" width="80" height="80" as="geometry" />
        </mxCell>
        <mxCell id="Uv0XRD-SDKMZK3PV6rSL-82" value="0.288" style="rounded=1;whiteSpace=wrap;html=1;fillColor=#4D4D4D;" vertex="1" parent="Uv0XRD-SDKMZK3PV6rSL-78">
          <mxGeometry x="150" width="80" height="80" as="geometry" />
        </mxCell>
        <mxCell id="Uv0XRD-SDKMZK3PV6rSL-83" value="0.3456" style="rounded=1;whiteSpace=wrap;html=1;fillColor=#4D4D4D;" vertex="1" parent="Uv0XRD-SDKMZK3PV6rSL-78">
          <mxGeometry x="230" width="80" height="80" as="geometry" />
        </mxCell>
        <mxCell id="Uv0XRD-SDKMZK3PV6rSL-84" value="" style="rounded=1;whiteSpace=wrap;html=1;fillColor=#4D4D4D;" vertex="1" parent="Uv0XRD-SDKMZK3PV6rSL-78">
          <mxGeometry x="310" width="80" height="80" as="geometry" />
        </mxCell>
        <mxCell id="Uv0XRD-SDKMZK3PV6rSL-85" value="" style="rounded=1;whiteSpace=wrap;html=1;fillColor=#4D4D4D;" vertex="1" parent="Uv0XRD-SDKMZK3PV6rSL-78">
          <mxGeometry x="390" width="80" height="80" as="geometry" />
        </mxCell>
        <mxCell id="Uv0XRD-SDKMZK3PV6rSL-86" value="" style="rounded=1;whiteSpace=wrap;html=1;fillColor=#4D4D4D;" vertex="1" parent="Uv0XRD-SDKMZK3PV6rSL-78">
          <mxGeometry x="470" width="80" height="80" as="geometry" />
        </mxCell>
        <mxCell id="Uv0XRD-SDKMZK3PV6rSL-87" value="" style="rounded=1;whiteSpace=wrap;html=1;fillColor=#4D4D4D;" vertex="1" parent="Uv0XRD-SDKMZK3PV6rSL-78">
          <mxGeometry x="550" width="80" height="80" as="geometry" />
        </mxCell>
        <mxCell id="Uv0XRD-SDKMZK3PV6rSL-88" value="" style="rounded=1;whiteSpace=wrap;html=1;fillColor=#4D4D4D;" vertex="1" parent="Uv0XRD-SDKMZK3PV6rSL-78">
          <mxGeometry x="630" width="80" height="80" as="geometry" />
        </mxCell>
        <mxCell id="Uv0XRD-SDKMZK3PV6rSL-89" value="" style="rounded=1;whiteSpace=wrap;html=1;fillColor=#4D4D4D;" vertex="1" parent="Uv0XRD-SDKMZK3PV6rSL-78">
          <mxGeometry x="710" width="80" height="80" as="geometry" />
        </mxCell>
        <mxCell id="Uv0XRD-SDKMZK3PV6rSL-90" value="" style="rounded=1;whiteSpace=wrap;html=1;fillColor=#4D4D4D;" vertex="1" parent="Uv0XRD-SDKMZK3PV6rSL-78">
          <mxGeometry x="790" width="80" height="80" as="geometry" />
        </mxCell>
      </root>
    </mxGraphModel>
  </diagram>
</mxfile>
